<svg width="166" height="48" viewBox="0 0 166 48" fill="none" xmlns="http://www.w3.org/2000/svg">
<g id="Vector">
<path d="M53.515 1.35509C53.2854 0.0875239 52.8539 -0.35596 52.1843 0.303901C44.3087 8.0373 38.1672 13.6187 21.9649 19.8382C14.7226 22.6193 7.07623 23.9909 4.32514 24.9326C1.57148 25.8769 -0.316224 28.7131 0.0440416 31.9458C0.254812 33.854 0.935105 35.22 2.5766 36.6296C3.99182 37.8368 8.0186 40.6812 12.0672 42.5043L12.1 42.5206L12.2392 42.5864L12.3019 42.6112C15.4111 44.0319 12.2967 46.6762 12.2967 46.6762C17.1511 47.5876 26.1935 44.8911 31.2804 41.253L31.2967 41.2423C33.0205 40.0598 34.4494 38.5866 34.93 36.9994C35.0828 36.4957 34.8211 35.9893 34.3073 36.0877C30.6275 36.772 24.3468 38.0832 21.1971 36.3041C23.5931 36.5338 30.9826 35.5702 36.6047 32.9863C42.407 30.3087 45.4943 26.1483 45.6364 22.6279C45.6774 21.5711 45.0709 21.0618 44.2374 21.5164C38.2931 24.7354 29.6223 27.5798 24.1202 27.6837C31.9607 25.0476 40.9784 21.7324 47.3735 15.7511C52.2338 11.202 54.4301 6.41095 53.515 1.35509Z" fill="#231F20"/>
<path d="M71.1734 33.7446L68.2392 26.2002L65.3054 33.7446H71.1734ZM65.0511 18.4043H71.7798L81.3139 42.2444H74.4571L73.2796 39.1759H63.1992L62.0187 42.2444H55.5771L65.0511 18.4043Z" fill="#231F20"/>
<path d="M81.3138 23.9019H86.2286L86.7366 25.536C87.7553 24.4437 89.5449 23.5157 93.2767 23.5157C98.6009 23.5157 99.8139 26.5842 99.8139 31.1888V42.2456H93.4978V31.8539C93.4978 30.1265 93.2767 28.8209 90.9161 28.8209C88.0451 28.8209 87.6324 30.0307 87.6324 31.9497V42.2456H81.3138V23.9019Z" fill="#231F20"/>
<path d="M99.8153 42.9168H100.293C101.569 42.9168 101.632 42.5635 101.632 40.8063V23.9324H107.951V40.7789C107.951 46.3356 106.448 48 100.995 48H99.8153V42.9168Z" fill="#231F20"/>
<path d="M109.761 33.4907V23.9371H116.08V33.9394C116.08 36.2448 116.203 37.6792 118.978 37.6792C121.721 37.6792 121.847 36.2086 121.847 33.9394V23.9371H128.067V33.4907C128.067 40.4629 125.868 42.5952 118.915 42.5952C111.993 42.5952 109.761 40.4932 109.761 33.4907Z" fill="#231F20"/>
<path d="M156.584 23.5165C150.459 23.5165 148.069 25.5642 148.069 29.5936C148.069 34.8359 151.929 35.438 156.584 35.8567C158.592 36.0457 159.037 36.2677 159.037 36.8121C159.037 37.4883 158.657 37.6799 156.488 37.6799C154.352 37.6799 151.672 36.8809 149.921 35.728L146.825 40.0756C149.246 41.7341 152.595 42.5308 156.106 42.5308C162.996 42.5308 165.195 40.6145 165.195 36.3635C165.195 31.5099 161.367 31.028 156.617 30.549C154.704 30.3574 154.382 30.1329 154.382 29.618C154.382 29.0488 154.639 28.7588 156.805 28.7588C158.496 28.7588 160.692 29.2733 161.971 29.911L163.269 24.5459C161.337 23.8479 158.933 23.5165 156.584 23.5165Z" fill="#231F20"/>
<path d="M138.397 23.5165C132.275 23.5165 129.885 25.5642 129.885 29.5936C129.885 34.8359 133.742 35.438 138.397 35.8567C140.408 36.0457 140.853 36.2677 140.853 36.8095C140.853 37.4883 140.474 37.6799 138.304 37.6799C136.168 37.6799 133.488 36.8809 131.734 35.728L128.642 40.0756C131.062 41.7341 134.412 42.5308 137.919 42.5308C144.812 42.5308 147.011 40.6145 147.011 36.3635C147.011 31.5099 143.183 31.028 138.433 30.5464C136.52 30.3574 136.198 30.1329 136.198 29.618C136.198 29.0488 136.452 28.7588 138.624 28.7588C140.31 28.7588 142.509 29.2733 143.787 29.911L145.082 24.5459C143.154 23.845 140.747 23.5165 138.397 23.5165Z" fill="#231F20"/>
<path d="M107.978 16.9742V22.1177H101.599V16.9742H107.978Z" fill="#231F20"/>
</g>
</svg>
