<svg width="240" height="37" viewBox="0 0 240 37" fill="none" xmlns="http://www.w3.org/2000/svg">
<path d="M24.2685 28.1338C23.926 28.1338 23.6814 27.9381 23.6814 27.5467V13.1617H21.9199C21.5774 13.1617 21.3328 12.966 21.3328 12.5746V9.58997C21.3328 9.24747 21.5285 9.00283 21.9199 9.00283H27.6935C28.036 9.00283 28.2806 9.19854 28.2806 9.58997V27.5956C28.2806 27.9381 28.0849 28.1828 27.6935 28.1828H24.2685V28.1338ZM32.831 28.1338C32.4885 28.1338 32.2438 27.9381 32.2438 27.5467V9.58997C32.2438 9.24747 32.4396 9.00283 32.831 9.00283H34.7881C35.1306 9.00283 35.3263 9.14962 35.4242 9.44319L36.0603 11.645C36.1581 11.7917 36.256 11.8896 36.3049 11.8896C36.3538 11.8896 36.4517 11.8407 36.5985 11.6939C38.262 9.54104 40.0724 8.66033 42.8613 8.56247C43.2038 8.56247 43.4485 8.75819 43.4485 9.14962V12.1832C43.4485 12.5257 43.2527 12.7703 42.8613 12.7703C38.6045 12.966 36.892 15.9017 36.892 22.9474V27.5956C36.892 27.9381 36.6963 28.1828 36.3049 28.1828H32.831V28.1338ZM53.1363 28.5253C48.5859 28.5253 45.8949 25.7363 45.8949 21.0392V9.58997C45.8949 9.24747 46.0906 9.00283 46.482 9.00283H49.9559C50.2984 9.00283 50.5431 9.19854 50.5431 9.58997V20.5989C50.5431 22.9474 51.7663 24.3664 53.7724 24.3664C56.5613 24.3664 58.1759 22.2624 58.1759 18.6417V9.58997C58.1759 9.24747 58.3716 9.00283 58.763 9.00283H62.237C62.5795 9.00283 62.8241 9.19854 62.8241 9.58997V27.5956C62.8241 27.9381 62.6284 28.1828 62.237 28.1828H60.2798C59.8395 28.1828 59.6927 27.8892 59.6927 27.6935L59.3502 26.1278C59.2523 25.8831 59.1545 25.8831 59.1055 25.8831C59.0077 25.8831 58.8609 25.981 58.6652 26.1278C56.8059 28.1338 54.6531 28.5253 53.1363 28.5253ZM52.4513 6.11605C52.1577 6.11605 52.0599 6.0182 52.0109 5.92034C51.962 5.82248 51.9131 5.6757 52.0599 5.43105L54.702 0.391427C54.8488 0.146785 55.0445 0 55.3381 0H59.2523C59.5948 0 59.6927 0.146785 59.7416 0.244642C59.7905 0.342499 59.8395 0.489284 59.6438 0.733926L55.9741 5.77355C55.7784 6.0182 55.5827 6.11605 55.3381 6.11605H52.4513ZM67.1787 28.1338C66.8362 28.1338 66.5916 27.9381 66.5916 27.5467V9.58997C66.5916 9.24747 66.7873 9.00283 67.1787 9.00283H69.1359C69.4784 9.00283 69.6741 9.14962 69.7719 9.44319L70.408 11.645C70.5059 11.7917 70.6037 11.8896 70.6527 11.8896C70.7016 11.8896 70.7994 11.8407 70.9462 11.6939C72.6098 9.54104 74.4201 8.66033 77.2091 8.56247C77.5516 8.56247 77.7962 8.75819 77.7962 9.14962V12.1832C77.7962 12.5257 77.6005 12.7703 77.2091 12.7703C72.9523 12.966 71.2398 15.9017 71.2398 22.9474V27.5956C71.2398 27.9381 71.0441 28.1828 70.6527 28.1828H67.1787V28.1338ZM87.6797 36.892C86.2119 36.892 84.4505 36.6963 83.423 36.4027L81.5148 35.8645C81.368 35.8156 81.2212 35.7178 81.1233 35.6199C81.0744 35.4731 81.0255 35.3263 81.0744 35.1795L81.9551 32.2928C82.053 32.0481 82.1998 31.9013 82.4444 31.9013C82.4933 31.9013 82.5912 31.9013 82.6401 31.9503L84.1569 32.3906C84.9887 32.6353 86.4076 32.831 87.484 32.831C89.6858 32.831 92.4258 32.146 93.1597 28.7699C93.2087 27.8892 93.2576 27.4978 93.3065 27.2042C93.3555 26.9596 93.3554 26.7638 93.3554 26.4213C93.3554 26.3235 93.3065 26.2746 93.3065 26.2746C93.3065 26.2746 93.2087 26.2746 93.0619 26.4213C91.6919 27.8892 89.7837 28.721 87.5819 28.721C82.3955 28.721 79.2151 24.9535 79.2151 18.8374C79.2151 12.5257 82.6401 8.80712 88.4137 8.80712C90.1262 8.80712 91.7897 9.10069 93.2576 9.68783L96.7315 11.1068C97.0251 11.2046 97.1719 11.4003 97.1719 11.6939V27.9871C97.1229 33.6628 93.7469 36.892 87.6797 36.892ZM88.3647 12.7703C85.429 12.7703 83.7655 14.8742 83.7655 18.5439C83.7655 22.1156 85.429 24.3664 88.1201 24.3664C91.0069 24.3664 92.5726 22.3114 92.5726 18.6417V13.9446L91.4962 13.4553C90.6155 13.015 89.4901 12.7703 88.3647 12.7703ZM102.652 28.1338C102.309 28.1338 102.065 27.9381 102.065 27.5467V13.1617H100.303C99.9608 13.1617 99.7161 12.966 99.7161 12.5746V9.58997C99.7161 9.24747 99.9119 9.00283 100.303 9.00283H106.077C106.419 9.00283 106.664 9.19854 106.664 9.58997V27.5956C106.664 27.9381 106.468 28.1828 106.077 28.1828H102.652V28.1338ZM119.092 28.5742C113.22 28.5742 109.746 24.8556 109.746 18.5439C109.746 12.2321 113.22 8.6114 119.19 8.6114C120.364 8.6114 121.489 8.75819 122.566 9.10069L124.229 9.58997C124.572 9.68783 124.719 9.9814 124.621 10.3239L123.74 13.2596C123.642 13.5042 123.495 13.651 123.251 13.651C123.202 13.651 123.104 13.651 123.055 13.6021L121.734 13.2596C120.56 12.8682 119.63 12.8192 119.141 12.8192C115.911 12.8192 114.248 14.7764 114.248 18.5439C114.248 22.3114 115.96 24.4153 119.092 24.4153C119.924 24.4153 121 24.2685 121.93 23.9749L123.202 23.5835C123.251 23.5835 123.349 23.5346 123.397 23.5346C123.642 23.5346 123.838 23.6814 123.936 23.926L124.816 26.8617C124.865 27.0085 124.865 27.2042 124.768 27.3021C124.719 27.4488 124.572 27.5467 124.376 27.5956L122.664 28.0849C121.44 28.3785 120.217 28.5742 119.092 28.5742ZM133.428 28.5742C129.122 28.5742 126.578 26.3235 126.578 22.556C126.578 18.7396 129.269 16.4399 133.77 16.4399H138.467V16.3421C138.467 14.0425 137 12.8192 134.211 12.8192C133.085 12.8192 132.107 12.9171 131.226 13.2107L129.807 13.651C129.758 13.651 129.66 13.7 129.611 13.7C129.367 13.7 129.171 13.5532 129.073 13.2596L128.241 10.3728C128.193 10.226 128.192 10.0303 128.29 9.93247C128.339 9.78568 128.486 9.68783 128.682 9.6389L130.15 9.19854C131.52 8.80712 132.89 8.6114 134.406 8.6114C139.789 8.6114 143.018 11.4493 143.018 16.1953V27.5956C143.018 27.9381 142.822 28.1828 142.431 28.1828H140.474C140.131 28.1828 139.935 28.036 139.837 27.7424L139.544 26.5192C139.397 26.2256 139.299 26.2256 139.299 26.2256C139.152 26.2256 138.908 26.4703 138.81 26.5192C137.587 27.8403 135.727 28.5742 133.428 28.5742ZM133.77 20.1096C132.058 20.1096 131.128 20.8435 131.128 22.1646C131.128 23.6324 132.156 24.4642 133.917 24.4642C136.951 24.4642 138.516 22.9964 138.516 20.2074V20.0607H133.77V20.1096ZM101.673 5.62677C101.673 6.84998 102.75 7.9264 103.973 7.9264C105.196 7.9264 106.273 6.80105 106.273 5.62677C106.273 4.35463 105.245 3.32713 103.973 3.32713C102.652 3.32713 101.673 4.3057 101.673 5.62677ZM23.2899 5.62677C23.2899 6.84998 24.3664 7.9264 25.5896 7.9264C26.8128 7.9264 27.8892 6.80105 27.8892 5.62677C27.8892 4.35463 26.8617 3.32713 25.5896 3.32713C24.2685 3.32713 23.2899 4.3057 23.2899 5.62677ZM12.0853 28.5742C4.6482 28.5742 0 23.1431 0 14.385C0 5.6757 4.6482 0.29357 12.0853 0.29357C14.4339 0.29357 15.9017 0.538213 17.8099 1.17428L19.5224 1.76142C19.816 1.85928 19.9628 2.15285 19.8649 2.44642L18.8374 5.43105C18.7396 5.6757 18.5928 5.82248 18.3482 5.82248C18.2992 5.82248 18.2014 5.82248 18.1524 5.77355L16.391 5.18641C15.1189 4.74606 13.9446 4.55034 12.0364 4.55034C7.43712 4.55034 4.69713 8.21997 4.69713 14.385C4.69713 20.6478 7.38819 24.2196 12.0364 24.2196C13.7978 24.2196 14.9232 24.0239 16.44 23.5346L18.1524 22.9474C18.2014 22.9474 18.2992 22.8985 18.3482 22.8985C18.5439 22.8985 18.7396 23.0453 18.8864 23.2899L19.9628 26.2256C20.0607 26.4214 20.0117 26.5681 19.9628 26.666C19.9139 26.8128 19.7671 26.9106 19.5714 26.9596L17.8589 27.5467C15.706 28.2806 14.1892 28.5742 12.0853 28.5742Z" fill="white"/>
<path d="M169.553 28.1631C169.553 28.3588 169.455 28.4566 169.259 28.4566H168.231C168.036 28.4566 167.938 28.3588 167.938 28.1631V11.5274H166.176C165.981 11.5274 165.883 11.4295 165.883 11.2338V10.3042C165.883 10.1085 165.981 10.0106 166.176 10.0106H169.259C169.455 10.0106 169.553 10.1085 169.553 10.3042V28.1631ZM176.696 13.0442C176.696 13.3867 176.941 13.3867 177.136 13.0931C178.555 10.8913 180.659 9.57026 183.791 9.57026C187.95 9.57026 190.494 12.506 190.494 17.2031V28.1631C190.494 28.3588 190.396 28.4566 190.2 28.4566H189.222C189.026 28.4566 188.928 28.3588 188.928 28.1631V17.301C188.928 13.4845 186.971 11.1849 183.742 11.1849C179.387 11.1849 176.843 14.3652 176.843 19.9431V28.1631C176.843 28.3588 176.745 28.4566 176.549 28.4566H175.522C175.326 28.4566 175.228 28.3588 175.228 28.1631V10.3042C175.228 10.1085 175.326 10.0106 175.522 10.0106H176.451C176.647 10.0106 176.745 10.1085 176.745 10.3042V13.0442H176.696ZM207.423 28.2609C206.151 28.7013 204.928 28.897 203.166 28.897C198.029 28.897 194.946 25.2274 194.946 19.2581C194.946 13.2888 198.078 9.61919 203.215 9.61919C207.668 9.61919 210.163 11.821 210.163 15.4906C210.163 18.3774 208.01 20.0899 204.439 20.0899H196.561C196.708 24.7381 199.203 27.3313 203.166 27.3313C204.634 27.3313 205.711 27.2334 206.983 26.842L208.01 26.5484C208.206 26.4995 208.353 26.5974 208.402 26.7931L208.695 27.6738C208.793 27.8695 208.695 28.0163 208.5 28.0652L207.423 28.2609ZM204.439 18.5242C206.983 18.5242 208.5 17.3988 208.5 15.4417C208.5 12.7506 206.542 11.1849 203.166 11.1849C199.105 11.1849 196.855 14.0227 196.561 18.5242H204.439ZM221.319 9.96169C221.515 9.96169 221.612 10.0595 221.612 10.2553V11.1849C221.612 11.3806 221.515 11.4785 221.319 11.4785H217.013V24.3956C217.013 26.2059 217.845 27.2334 219.362 27.2334C219.655 27.2334 220.047 27.1845 220.389 27.0866C220.585 26.9888 220.683 27.0866 220.781 27.2334L221.123 28.1141C221.221 28.3099 221.172 28.4077 220.976 28.5056C220.536 28.7013 219.949 28.7991 219.362 28.7991C216.866 28.7991 215.398 27.1845 215.398 24.3956V11.5274H213.637C213.441 11.5274 213.343 11.4295 213.343 11.2338V10.3042C213.343 10.1085 213.441 10.0106 213.637 10.0106H215.398V5.21563C215.398 5.01992 215.496 4.92206 215.692 4.87313L216.72 4.53063C216.915 4.43278 217.062 4.57956 217.062 4.8242V10.0106H221.319V9.96169ZM236.438 28.2609C235.166 28.7013 233.942 28.897 232.181 28.897C227.043 28.897 223.961 25.2274 223.961 19.2581C223.961 13.2888 227.092 9.61919 232.23 9.61919C236.682 9.61919 239.178 11.821 239.178 15.4906C239.178 18.3774 237.025 20.0899 233.453 20.0899H225.576C225.722 24.7381 228.218 27.3313 232.181 27.3313C233.649 27.3313 234.725 27.2334 235.997 26.842L237.025 26.5484C237.221 26.4995 237.367 26.5974 237.416 26.7931L237.71 27.6738C237.808 27.8695 237.71 28.0163 237.514 28.0652L236.438 28.2609ZM233.453 18.5242C235.997 18.5242 237.514 17.3988 237.514 15.4417C237.514 12.7506 235.557 11.1849 232.181 11.1849C228.12 11.1849 225.869 14.0227 225.576 18.5242H233.453ZM166.128 7.27063C166.128 8.10241 166.861 8.83634 167.693 8.83634C168.525 8.83634 169.259 8.10241 169.259 7.27063C169.259 6.38991 168.574 5.70492 167.693 5.70492C166.764 5.70492 166.128 6.38991 166.128 7.27063ZM150.764 14.6588C146.801 13.142 145.382 10.9892 145.382 8.00455C145.382 3.94349 148.562 1.49707 153.455 1.49707C155.363 1.49707 157.174 1.79064 159.229 2.42671L161.039 3.01385C161.235 3.06278 161.333 3.20957 161.235 3.40528L160.941 4.28599C160.892 4.48171 160.745 4.57956 160.55 4.4817L158.788 3.89456C157.027 3.35635 155.363 3.06278 153.455 3.06278C149.59 3.06278 147.094 4.97099 147.094 7.95562C147.094 9.8149 147.779 11.772 151.449 13.142L157.32 15.3438C160.55 16.567 162.849 18.2795 162.849 21.6556C162.849 26.1081 158.886 28.7502 153.7 28.7502C150.666 28.7502 148.464 28.1631 146.458 27.3802L145.186 26.8909C145.039 26.7931 144.942 26.6463 145.039 26.4995L145.333 25.5699C145.431 25.3741 145.578 25.2763 145.773 25.3741L146.997 25.8634C148.758 26.5484 150.666 27.0866 153.7 27.0866C157.761 27.0866 161.137 25.0806 161.137 21.6067C161.137 19.0624 158.984 17.5945 156.782 16.7627L150.764 14.6588Z" fill="#00877A"/>
</svg>
