<svg width="811" height="224" viewBox="0 0 811 224" fill="none" xmlns="http://www.w3.org/2000/svg">
<path d="M624.637 222.473C619.268 222.473 614.503 221.254 610.353 218.805C606.204 216.356 602.955 212.954 600.619 208.589C598.273 204.224 597.104 199.224 597.104 193.588C597.104 187.952 598.262 182.88 600.578 178.546C602.894 174.212 606.091 170.82 610.19 168.371C614.288 165.922 619.022 164.703 624.391 164.703C629.761 164.703 634.515 165.942 638.634 168.412C642.753 170.881 645.961 174.294 648.246 178.628C650.531 182.962 651.678 187.952 651.678 193.588C651.678 199.224 650.531 204.224 648.246 208.589C645.961 212.954 642.784 216.356 638.706 218.805C634.638 221.254 629.945 222.473 624.627 222.473H624.637ZM624.637 216.336C628.623 216.336 632.138 215.362 635.171 213.426C638.204 211.489 640.581 208.815 642.313 205.402C644.045 202.001 644.905 198.066 644.905 193.598C644.905 189.131 644.024 185.257 642.272 181.825C640.52 178.392 638.112 175.708 635.048 173.761C631.984 171.824 628.439 170.851 624.391 170.851C620.344 170.851 616.86 171.824 613.776 173.761C610.692 175.708 608.273 178.392 606.511 181.825C604.759 185.257 603.878 189.182 603.878 193.598C603.878 198.015 604.759 202.001 606.511 205.402C608.263 208.804 610.712 211.479 613.848 213.426C616.983 215.372 620.58 216.336 624.617 216.336H624.637Z" fill="#1F41FF" stroke="#1F41FF" stroke-width="1.28084" stroke-miterlimit="10"/>
<path d="M659.046 221.52V181.629H665.03L665.43 188.966V221.52H659.046ZM687.05 201.088C687.05 197.153 686.599 194.151 685.698 192.071C684.796 190.001 683.546 188.576 681.947 187.798C680.349 187.029 678.545 186.64 676.516 186.64C673.002 186.64 670.276 187.88 668.34 190.349C666.393 192.819 665.43 196.323 665.43 200.842H662.315C662.315 196.641 662.929 193.024 664.149 189.99C665.368 186.957 667.151 184.642 669.498 183.053C671.844 181.465 674.662 180.656 677.951 180.656C681.24 180.656 683.812 181.281 686.128 182.531C688.444 183.781 690.247 185.759 691.559 188.474C692.86 191.189 693.485 194.755 693.434 199.161V201.077H687.05V201.088ZM687.05 221.52V201.098H693.434V221.52H687.05Z" fill="#1F41FF" stroke="#1F41FF" stroke-width="1.28084" stroke-miterlimit="10"/>
<path d="M701.508 221.521V165.666H707.891V221.521H701.508Z" fill="#1F41FF" stroke="#1F41FF" stroke-width="1.28084" stroke-miterlimit="10"/>
<path d="M719.911 172.366C718.845 172.366 717.913 171.967 717.113 171.168C716.314 170.368 715.915 169.436 715.915 168.37C715.915 167.305 716.314 166.311 717.113 165.542C717.913 164.774 718.845 164.384 719.911 164.384C721.028 164.384 721.97 164.774 722.739 165.542C723.507 166.311 723.897 167.253 723.897 168.37C723.897 169.487 723.507 170.368 722.739 171.168C721.97 171.967 721.028 172.366 719.911 172.366ZM716.642 221.52V181.629H723.026V221.52H716.642Z" fill="#1F41FF" stroke="#1F41FF" stroke-width="1.28084" stroke-miterlimit="10"/>
<path d="M731.951 221.52V181.629H737.935L738.334 188.966V221.52H731.951ZM759.955 201.088C759.955 197.153 759.504 194.151 758.602 192.071C757.701 190.001 756.45 188.576 754.852 187.798C753.254 187.029 751.45 186.64 749.421 186.64C745.907 186.64 743.181 187.88 741.244 190.349C739.298 192.819 738.334 196.323 738.334 200.842H735.219C735.219 196.641 735.834 193.024 737.054 189.99C738.273 186.957 740.056 184.642 742.402 183.053C744.749 181.465 747.567 180.656 750.856 180.656C754.145 180.656 756.717 181.281 759.033 182.531C761.348 183.781 763.152 185.759 764.463 188.474C765.765 191.189 766.39 194.755 766.339 199.161V201.077H759.955V201.088ZM759.955 221.52V201.098H766.339V221.52H759.955Z" fill="#1F41FF" stroke="#1F41FF" stroke-width="1.28084" stroke-miterlimit="10"/>
<path d="M791.976 222.472C788.092 222.472 784.66 221.581 781.678 219.798C778.696 218.015 776.37 215.555 774.7 212.42C773.019 209.285 772.189 205.667 772.189 201.569C772.189 197.47 773.03 193.853 774.7 190.718C776.37 187.582 778.686 185.123 781.637 183.34C784.588 181.557 787.98 180.666 791.812 180.666C795.644 180.666 798.749 181.588 801.464 183.422C804.18 185.256 806.28 187.828 807.766 191.117C809.252 194.417 810 198.3 810 202.768H777.046L778.645 201.415C778.645 204.602 779.219 207.348 780.356 209.633C781.504 211.918 783.112 213.66 785.182 214.859C787.252 216.058 789.619 216.652 792.283 216.652C795.101 216.652 797.478 215.986 799.425 214.654C801.362 213.322 802.868 211.57 803.934 209.387L809.436 212.184C808.422 214.254 807.079 216.068 805.409 217.615C803.739 219.162 801.761 220.351 799.507 221.201C797.243 222.052 794.732 222.482 791.966 222.482L791.976 222.472ZM779.044 198.7L777.374 197.419H804.907L803.227 198.771C803.227 196.22 802.725 194.007 801.71 192.152C800.696 190.287 799.343 188.853 797.642 187.848C795.941 186.834 793.974 186.332 791.74 186.332C789.506 186.332 787.498 186.834 785.561 187.848C783.615 188.863 782.047 190.287 780.858 192.121C779.659 193.955 779.065 196.148 779.065 198.7H779.044Z" fill="#1F41FF" stroke="#1F41FF" stroke-width="1.28084" stroke-miterlimit="10"/>
<path d="M202.864 138.964V26.9673H242.385C250.06 26.9673 256.833 28.4633 262.704 31.4451C268.565 34.4269 273.156 38.5665 276.466 43.8436C279.775 49.1206 281.425 55.2276 281.425 62.1646C281.425 69.1016 279.693 75.2291 276.23 80.5677C272.767 85.9062 267.992 90.0868 261.905 93.1301C255.829 96.1734 248.943 97.6899 241.268 97.6899H221.431V138.974H202.874L202.864 138.964ZM221.431 80.5677H243.195C246.822 80.5677 250.05 79.7684 252.878 78.1699C255.706 76.5715 258.001 74.3889 259.753 71.6121C261.516 68.8352 262.397 65.6895 262.397 62.1749C262.397 56.8466 260.481 52.4713 256.638 49.0591C252.796 45.647 247.836 43.9358 241.76 43.9358H221.441V80.5779L221.431 80.5677ZM264.948 138.964L238.707 93.5195L253.103 83.6007L285.903 138.964H264.938H264.948Z" fill="#1F41FF"/>
<path d="M333.591 140.89C325.803 140.89 318.897 139.107 312.872 135.531C306.847 131.954 302.093 127.026 298.629 120.734C295.166 114.443 293.424 107.188 293.424 98.9704C293.424 90.7526 295.186 83.5082 298.701 77.2065C302.226 70.915 307.042 65.9761 313.179 62.4103C319.317 58.8342 326.326 57.0513 334.216 57.0513C341.358 57.0513 347.813 58.8957 353.572 62.5742C359.33 66.2528 363.89 71.5606 367.251 78.4976C370.612 85.4346 372.293 93.6934 372.293 103.295H309.409L311.806 101.051C311.806 105.959 312.872 110.201 315.003 113.767C317.135 117.343 319.963 120.089 323.488 122.005C327.012 123.921 330.896 124.884 335.169 124.884C340.077 124.884 344.135 123.788 347.332 121.605C350.529 119.423 353.039 116.564 354.853 113.049L370.694 119.771C368.45 124.034 365.601 127.774 362.138 130.971C358.675 134.168 354.566 136.627 349.822 138.328C345.077 140.029 339.657 140.89 333.581 140.89H333.591ZM312.944 91.767L310.382 89.523H355.498L353.101 91.767C353.101 87.3917 352.137 83.7951 350.221 80.967C348.305 78.1389 345.877 76.0076 342.946 74.5628C340.015 73.1181 336.941 72.4008 333.745 72.4008C330.548 72.4008 327.34 73.1181 324.143 74.5628C320.946 76.0076 318.272 78.1389 316.141 80.967C314.009 83.7951 312.944 87.3917 312.944 91.767Z" fill="#1F41FF"/>
<path d="M382.549 138.963V58.9674H399.354L400.153 69.6854C402.602 65.5253 405.748 62.3795 409.59 60.2482C413.433 58.1169 417.798 57.0513 422.706 57.0513C429.11 57.0513 434.551 58.496 439.029 61.3754C443.507 64.2547 446.765 68.63 448.794 74.4911C451.141 68.8349 454.45 64.5211 458.713 61.5291C462.976 58.5473 467.996 57.0513 473.755 57.0513C483.039 57.0513 490.18 60.0126 495.191 65.9351C500.202 71.8577 502.651 80.9465 502.548 93.2118V138.973H484.791V98.0073C484.791 91.6031 484.094 86.6744 482.711 83.211C481.327 79.7477 479.452 77.3192 477.106 75.9359C474.759 74.5526 472.034 73.8558 468.949 73.8558C463.406 73.7534 459.113 75.7207 456.069 79.7784C453.026 83.8361 451.509 89.646 451.509 97.2183V138.984H433.588V98.0175C433.588 91.6133 432.922 86.6847 431.59 83.2213C430.258 79.7579 428.413 77.3294 426.067 75.9461C423.72 74.5628 420.995 73.8661 417.911 73.8661C412.367 73.7636 408.074 75.731 405.031 79.7886C401.987 83.8463 400.471 89.6562 400.471 97.2285V138.994H382.549V138.963Z" fill="#1F41FF"/>
<path d="M552.952 140.89C545.164 140.89 538.258 139.107 532.233 135.531C526.208 131.954 521.453 127.026 517.99 120.734C514.527 114.443 512.795 107.188 512.795 98.9704C512.795 90.7526 514.557 83.5082 518.072 77.2065C521.597 70.915 526.413 65.9761 532.55 62.4103C538.688 58.8342 545.697 57.0513 553.587 57.0513C560.729 57.0513 567.184 58.8957 572.943 62.5742C578.702 66.2528 583.261 71.5606 586.622 78.4976C589.983 85.4346 591.664 93.6934 591.664 103.295H528.78L531.177 101.051C531.177 105.959 532.243 110.201 534.374 113.767C536.506 117.343 539.334 120.089 542.848 122.005C546.373 123.921 550.257 124.884 554.53 124.884C559.438 124.884 563.495 123.788 566.692 121.605C569.889 119.423 572.4 116.564 574.214 113.049L590.055 119.771C587.811 124.034 584.962 127.774 581.499 130.971C578.036 134.168 573.927 136.627 569.182 138.328C564.438 140.029 559.018 140.89 552.941 140.89H552.952ZM532.315 91.767L529.753 89.523H574.88L572.482 91.767C572.482 87.3917 571.519 83.7951 569.603 80.967C567.686 78.1389 565.258 76.0076 562.327 74.5628C559.397 73.1181 556.323 72.4008 553.126 72.4008C549.929 72.4008 546.722 73.1181 543.525 74.5628C540.328 76.0076 537.653 78.1389 535.522 80.967C533.391 83.7951 532.325 87.3917 532.325 91.767H532.315Z" fill="#1F41FF"/>
<path d="M631.032 140.889C625.693 140.889 620.795 140.09 616.307 138.491C611.829 136.893 607.987 134.628 604.79 131.688C601.593 128.757 599.134 125.314 597.433 121.369L612.956 114.494C614.555 117.486 616.932 119.986 620.078 122.015C623.224 124.044 626.718 125.058 630.56 125.058C634.72 125.058 638.05 124.341 640.561 122.896C643.071 121.461 644.321 119.453 644.321 116.902C644.321 114.35 643.358 112.557 641.442 111.225C639.526 109.893 636.8 108.797 633.286 107.946L625.765 105.866C618.192 103.95 612.27 100.886 608.007 96.6645C603.745 92.4531 601.603 87.6269 601.603 82.1859C601.603 74.1832 604.185 68.0045 609.36 63.6292C614.534 59.2538 621.973 57.0713 631.677 57.0713C636.585 57.0713 641.094 57.7886 645.203 59.2333C649.312 60.6679 652.857 62.6967 655.839 65.3096C658.82 67.9225 660.901 70.9863 662.079 74.5111L647.201 81.233C646.135 78.5688 644.106 76.5092 641.124 75.0747C638.132 73.6299 634.833 72.9127 631.206 72.9127C627.578 72.9127 624.75 73.6914 622.721 75.2284C620.693 76.7757 619.678 78.9377 619.678 81.7043C619.678 83.3028 620.58 84.7681 622.394 86.1001C624.207 87.4322 626.82 88.5286 630.232 89.3791L639.669 91.6231C644.895 92.9039 649.158 94.902 652.468 97.6277C655.777 100.343 658.226 103.386 659.825 106.747C661.423 110.108 662.222 113.49 662.222 116.912C662.222 121.707 660.86 125.929 658.144 129.556C655.429 133.184 651.72 135.981 647.027 137.959C642.334 139.926 636.995 140.92 631.032 140.92V140.889Z" fill="#1F41FF"/>
<path d="M701.918 140.889C696.58 140.889 691.682 140.09 687.194 138.491C682.716 136.893 678.873 134.628 675.676 131.688C672.479 128.757 670.02 125.314 668.319 121.369L683.843 114.494C685.442 117.486 687.819 119.986 690.965 122.015C694.11 124.044 697.604 125.058 701.447 125.058C705.607 125.058 708.937 124.341 711.448 122.896C713.958 121.461 715.208 119.453 715.208 116.902C715.208 114.35 714.245 112.557 712.329 111.225C710.413 109.893 707.687 108.797 704.172 107.946L696.651 105.866C689.079 103.95 683.157 100.886 678.894 96.6645C674.631 92.4531 672.49 87.6269 672.49 82.1859C672.49 74.1832 675.072 68.0045 680.246 63.6292C685.421 59.2538 692.86 57.0713 702.564 57.0713C707.472 57.0713 711.98 57.7886 716.089 59.2333C720.198 60.6679 723.744 62.6967 726.725 65.3096C729.707 67.9225 731.787 70.9863 732.966 74.5111L718.087 81.233C717.022 78.5688 714.993 76.5092 712.011 75.0747C709.019 73.6299 705.72 72.9127 702.092 72.9127C698.465 72.9127 695.637 73.6914 693.608 75.2284C691.579 76.7757 690.565 78.9377 690.565 81.7043C690.565 83.3028 691.467 84.7681 693.28 86.1001C695.094 87.4322 697.707 88.5286 701.119 89.3791L710.556 91.6231C715.782 92.9039 720.045 94.902 723.354 97.6277C726.664 100.343 729.113 103.386 730.711 106.747C732.31 110.108 733.109 113.49 733.109 116.912C733.109 121.707 731.746 125.929 729.031 129.556C726.316 133.184 722.606 135.981 717.913 137.959C713.22 139.926 707.882 140.92 701.918 140.92V140.889Z" fill="#1F41FF"/>
<path d="M769.597 140.89C759.996 140.89 752.557 138.759 747.28 134.486C742.003 130.223 739.359 124.188 739.359 116.401C739.359 108.08 742.157 101.738 747.762 97.3622C753.356 92.9869 761.175 90.8043 771.206 90.8043H792.642V104.566H776.965C769.813 104.566 764.802 105.549 761.923 107.527C759.043 109.505 757.598 112.302 757.598 115.929C757.598 119.024 758.849 121.452 761.359 123.204C763.869 124.967 767.364 125.848 771.841 125.848C775.889 125.848 779.414 124.946 782.406 123.133C785.387 121.319 787.713 118.921 789.363 115.929C791.013 112.947 791.843 109.586 791.843 105.846H797.12C797.12 116.728 794.937 125.284 790.562 131.525C786.187 137.765 779.198 140.89 769.597 140.89ZM792.632 138.964L791.833 123.922V97.8438C791.833 92.4028 791.269 87.843 790.152 84.1645C789.035 80.4859 787.222 77.6578 784.711 75.6802C782.201 73.7129 778.871 72.7189 774.71 72.7189C770.868 72.7189 767.507 73.5182 764.628 75.1166C761.748 76.7151 759.289 79.2256 757.271 82.6377L741.593 76.8791C743.294 73.3645 745.569 70.0753 748.397 67.0423C751.225 63.999 754.801 61.5808 759.115 59.7569C763.439 57.9432 768.634 57.0415 774.71 57.0415C782.498 57.0415 789.005 58.558 794.23 61.6013C799.456 64.6445 803.329 68.9891 805.83 74.6453C808.33 80.3015 809.59 87.1258 809.59 95.1284L809.109 138.974H792.632V138.964Z" fill="#1F41FF"/>
<path d="M148.341 41.097V68.6913L80.8873 29.7437C76.7271 27.346 71.6038 27.346 67.4436 29.7437L0 68.6913V41.097L67.4539 2.15962C71.614 -0.238103 76.7374 -0.238103 80.8873 2.15962L148.341 41.097Z" fill="#1F41FF"/>
<path d="M148.341 92.3807V119.965L80.8873 81.0171C76.7271 78.6194 71.6038 78.6194 67.4437 81.0171L0 119.965V92.3807L67.4539 53.4331C71.6141 51.0353 76.7374 51.0353 80.8975 53.4331L148.351 92.3807H148.341Z" fill="#1F41FF"/>
<path d="M67.4537 165.697L15.0215 135.439L67.4537 105.17C71.6139 102.772 76.7372 102.772 80.8974 105.17L133.33 135.439L80.8974 165.697C76.7372 168.095 71.6139 168.095 67.4537 165.697Z" fill="#1F41FF"/>
</svg>
